<?xml version="1.0" standalone="no"?>
<!DOCTYPE svg PUBLIC "-//W3C//DTD SVG 20010904//EN"
 "http://www.w3.org/TR/2001/REC-SVG-20010904/DTD/svg10.dtd">
<svg version="1.0" xmlns="http://www.w3.org/2000/svg"
 width="800.000000pt" height="800.000000pt" viewBox="0 0 800.000000 800.000000"
 preserveAspectRatio="xMidYMid meet">

<g transform="translate(0.000000,800.000000) scale(0.100000,-0.100000)"
fill="#000000" stroke="none">
<path d="M0 4000 l0 -4000 4000 0 4000 0 0 4000 0 4000 -4000 0 -4000 0 0
-4000z m5720 2975 l0 -155 160 0 160 0 0 -160 0 -160 150 0 150 0 0 -160 0
-160 165 0 165 0 0 -145 0 -145 155 0 155 0 0 -320 0 -320 155 0 155 0 0
-1405 0 -1405 -155 0 -155 0 0 -165 0 -165 -155 0 -155 0 0 -145 0 -145 -165
0 -165 0 0 -160 0 -160 -150 0 -150 0 0 -315 0 -315 -1565 0 -1565 0 0 155 0
155 -155 0 -155 0 0 160 0 160 -150 0 -150 0 0 160 0 160 -475 0 -475 0 0 145
0 145 -160 0 -160 0 0 165 0 165 -160 0 -160 0 0 630 0 630 140 0 140 0 0
-565 0 -565 145 0 145 0 0 570 0 570 285 0 285 0 0 -140 0 -140 145 0 145 0 0
-145 0 -145 145 0 145 0 0 -285 0 -285 140 0 140 0 0 715 0 715 145 0 145 0 0
285 0 285 430 0 430 0 0 -140 0 -140 140 0 140 0 0 -145 0 -145 290 0 290 0 0
-145 0 -145 285 0 285 0 0 145 0 145 285 0 285 0 0 285 0 285 145 0 145 0 0
-430 0 -430 140 0 140 0 0 -285 0 -285 145 0 145 0 0 -285 0 -285 145 0 145 0
0 1290 0 1290 -145 0 -145 0 0 285 0 285 -145 0 -145 0 0 140 0 140 -140 0
-140 0 0 145 0 145 -145 0 -145 0 0 145 0 145 -145 0 -145 0 0 140 0 140
-1570 0 -1570 0 0 -140 0 -140 -145 0 -145 0 0 -145 0 -145 -145 0 -145 0 0
-145 0 -145 -140 0 -140 0 0 -140 0 -140 -145 0 -145 0 0 -285 0 -285 -145 0
-145 0 0 -425 0 -425 -140 0 -140 0 0 475 0 475 160 0 160 0 0 320 0 320 160
0 160 0 0 145 0 145 160 0 160 0 0 160 0 160 150 0 150 0 0 160 0 160 160 0
160 0 0 155 0 155 1715 0 1715 0 0 -155z m-4559 -2705 l119 0 0 -270 0 -270
-119 0 c-86 0 -121 -3 -124 -12 -3 -7 -5 120 -5 282 0 162 2 289 5 283 3 -10
38 -13 124 -13z"/>
<path d="M5290 3425 l0 -285 285 0 285 0 0 285 0 285 -285 0 -285 0 0 -285z"/>
<path d="M3280 3140 l0 -290 290 0 290 0 0 290 0 290 -290 0 -290 0 0 -290z"/>
<path d="M4140 2710 l0 -140 430 0 430 0 0 140 0 140 -430 0 -430 0 0 -140z"/>
<path d="M1280 2425 l0 -145 145 0 145 0 0 -140 0 -140 430 0 430 0 0 -145 0
-145 140 0 140 0 0 -145 0 -145 145 0 145 0 0 -140 0 -140 1430 0 1430 0 0
285 0 285 145 0 145 0 0 145 0 145 140 0 140 0 0 140 0 140 145 0 145 0 0 145
0 145 -285 0 -285 0 0 -285 0 -285 -145 0 -145 0 0 -145 0 -145 -145 0 -145 0
0 -145 0 -145 -1285 0 -1285 0 0 145 0 145 -145 0 -145 0 0 145 0 145 -140 0
-140 0 0 140 0 140 -430 0 -430 0 0 145 0 145 -145 0 -145 0 0 -145z"/>
<path d="M5570 2425 l0 -145 145 0 145 0 0 145 0 145 -145 0 -145 0 0 -145z"/>
<path d="M3280 2140 l0 -140 145 0 145 0 0 140 0 140 -145 0 -145 0 0 -140z"/>
</g>
</svg>
